<svg xmlns="http://www.w3.org/2000/svg" xmlns:xlink="http://www.w3.org/1999/xlink" width="500" zoomAndPan="magnify" viewBox="0 0 375 374.999991" height="500" preserveAspectRatio="xMidYMid meet" version="1.0"><defs><clipPath id="b84f25668f"><path d="M 9.945312 37.5 L 364.695312 37.5 L 364.695312 318 L 9.945312 318 Z M 9.945312 37.5 " clip-rule="nonzero"/></clipPath><clipPath id="aecd530d94"><path d="M 240.039062 139.933594 C 245.507812 140.964844 250.886719 142.265625 256.148438 143.824219 C 255.960938 145.824219 256.46875 147.738281 257.476562 149.320312 C 257.429688 149.246094 257.382812 149.167969 257.335938 149.09375 C 257.320312 149.066406 257.304688 149.039062 257.289062 149.011719 C 256.703125 147.992188 256.34375 146.902344 256.191406 145.808594 C 256.1875 145.765625 256.179688 145.726562 256.175781 145.6875 C 256.132812 145.339844 256.113281 144.996094 256.113281 144.652344 C 256.117188 141.640625 257.6875 138.710938 260.472656 137.089844 C 261.84375 136.300781 263.339844 135.925781 264.8125 135.925781 C 267.835938 135.929688 270.773438 137.496094 272.390625 140.296875 C 272.933594 141.234375 273.28125 142.230469 273.445312 143.238281 C 273.523438 143.703125 273.558594 144.167969 273.558594 144.632812 C 273.5625 146.339844 273.058594 148.019531 272.117188 149.449219 C 278.019531 151.875 283.757812 154.636719 289.277344 157.722656 C 288.75 158.71875 288.15625 159.683594 287.507812 160.609375 C 287.519531 160.589844 287.535156 160.574219 287.546875 160.554688 C 293.585938 151.914062 294.402344 140.199219 288.730469 130.605469 C 285.375 124.925781 280.34375 120.871094 274.628906 118.714844 C 274.109375 118.542969 273.578125 118.386719 273.042969 118.246094 C 270.484375 117.488281 267.820312 117.097656 265.125 117.097656 C 261.410156 117.097656 257.65625 117.847656 254.089844 119.40625 C 254.046875 119.425781 254 119.445312 253.957031 119.464844 L 222.925781 101.550781 L 191.144531 119.898438 L 164.777344 104.683594 L 221.035156 72.195312 L 312.324219 124.882812 L 312.324219 158.03125 L 221 210.785156 L 129.6875 158.054688 C 129.683594 158.058594 129.683594 158.058594 129.679688 158.0625 L 65.339844 120.914062 C 65.691406 115.5 64.398438 110.128906 61.675781 105.421875 C 57.167969 97.628906 49.351562 92.628906 40.585938 91.699219 C 28.292969 90.394531 16.558594 97.453125 11.957031 108.929688 C 8.898438 116.554688 9.242188 125.464844 13.671875 133.132812 C 15.113281 135.628906 16.890625 137.820312 18.917969 139.679688 C 18.917969 139.679688 18.917969 139.683594 18.917969 139.683594 C 26.613281 146.757812 37.667969 148.894531 47.417969 145.21875 L 99.695312 175.417969 L 99.695312 178.925781 L 99.714844 178.96875 L 99.714844 247.628906 L 221.035156 317.695312 L 323.324219 258.648438 C 327.859375 261.289062 333.105469 262.59375 338.3125 262.398438 C 342.746094 262.234375 347.164062 261.011719 351.175781 258.691406 C 364.429688 251.0625 368.984375 234.09375 361.316406 220.839844 C 354.386719 208.808594 339.785156 203.953125 327.226562 208.875 C 317.675781 212.613281 310.863281 221.363281 309.753906 231.742188 L 220.988281 282.996094 L 143.714844 238.402344 C 143.722656 238.402344 143.734375 238.40625 143.742188 238.40625 L 129.703125 230.3125 L 129.703125 192.734375 L 206.019531 236.789062 L 221.046875 245.464844 L 325.699219 185.035156 C 325.695312 185.035156 325.695312 185.03125 325.695312 185.03125 L 342.308594 175.4375 L 342.308594 107.5625 C 316.175781 92.484375 290.050781 77.386719 263.917969 62.28125 C 263.914062 62.28125 263.910156 62.285156 263.910156 62.289062 C 249.605469 54.023438 235.296875 45.753906 220.988281 37.5 L 134.714844 87.324219 L 128.769531 83.886719 C 128.996094 78.628906 127.742188 73.421875 125.074219 68.808594 C 117.402344 55.535156 100.460938 51.019531 87.222656 58.667969 C 73.957031 66.324219 69.410156 83.25 77.074219 96.519531 C 83.96875 108.457031 98.546875 113.480469 111.265625 108.441406 L 169.734375 142.191406 C 169.726562 142.195312 169.71875 142.195312 169.714844 142.199219 L 191.1875 154.574219 L 223.019531 136.222656 C 228.699219 139.496094 233.945312 143.09375 239.457031 146.546875 C 239.449219 146.464844 239.441406 146.382812 239.433594 146.296875 C 240.492188 160.167969 252.078125 171.089844 266.214844 171.089844 C 274.886719 171.089844 282.59375 166.984375 287.507812 160.609375 C 288.15625 159.683594 288.75 158.71875 289.277344 157.722656 C 283.757812 154.636719 278.019531 151.875 272.117188 149.449219 C 272.101562 149.472656 272.085938 149.496094 272.070312 149.515625 C 271.761719 149.976562 271.40625 150.410156 271.007812 150.808594 C 271.003906 150.8125 271.003906 150.8125 271 150.8125 C 270.6875 151.128906 270.34375 151.425781 269.972656 151.691406 C 269.972656 151.695312 269.96875 151.695312 269.96875 151.695312 C 269.542969 152.003906 269.09375 152.273438 268.621094 152.503906 C 267.894531 152.855469 267.117188 153.105469 266.3125 153.246094 C 266.296875 153.25 266.28125 153.25 266.265625 153.253906 C 266.027344 153.292969 265.78125 153.324219 265.539062 153.34375 C 265.535156 153.34375 265.535156 153.34375 265.53125 153.34375 C 265.300781 153.363281 265.070312 153.371094 264.839844 153.371094 C 264.695312 153.371094 264.554688 153.367188 264.410156 153.363281 C 263.125 153.300781 261.917969 152.960938 260.851562 152.410156 C 259.464844 151.695312 258.304688 150.621094 257.480469 149.324219 C 257.480469 149.324219 257.476562 149.320312 257.476562 149.320312 C 256.46875 147.738281 255.960938 145.824219 256.148438 143.824219 C 250.886719 142.265625 245.511719 140.960938 240.039062 139.929688 Z M 45.414062 115.25 C 45.9375 116.261719 46.25 117.339844 46.351562 118.429688 C 46.664062 121.6875 45.128906 125.027344 42.027344 126.816406 C 40.222656 127.859375 38.210938 128.191406 36.304688 127.890625 C 35.457031 127.753906 34.632812 127.496094 33.859375 127.121094 C 32.492188 126.457031 31.277344 125.421875 30.378906 124.050781 C 30.289062 123.917969 30.203125 123.777344 30.121094 123.636719 C 27.710938 119.464844 29.144531 114.136719 33.3125 111.71875 C 34.6875 110.929688 36.183594 110.554688 37.660156 110.550781 C 38.644531 110.550781 39.621094 110.71875 40.542969 111.039062 C 42.328125 111.660156 43.914062 112.859375 45.003906 114.546875 C 45.152344 114.777344 45.289062 115.011719 45.414062 115.25 Z M 109.773438 83.273438 C 109.679688 84.628906 109.265625 85.953125 108.566406 87.128906 C 108.039062 88.019531 107.355469 88.808594 106.554688 89.457031 C 106.207031 89.738281 105.832031 89.996094 105.433594 90.230469 C 104.0625 91.015625 102.566406 91.390625 101.089844 91.390625 C 99.746094 91.390625 98.417969 91.082031 97.214844 90.488281 C 95.8125 89.792969 94.621094 88.730469 93.769531 87.429688 C 93.683594 87.296875 93.601562 87.164062 93.523438 87.027344 C 92.726562 85.648438 92.351562 84.144531 92.351562 82.660156 C 92.355469 81.136719 92.757812 79.636719 93.515625 78.316406 C 94.28125 76.988281 95.386719 75.875 96.714844 75.105469 C 96.769531 75.074219 96.828125 75.042969 96.882812 75.011719 C 99.269531 73.710938 102.003906 73.632812 104.351562 74.582031 C 105.808594 75.175781 107.074219 76.152344 108.015625 77.386719 C 108.234375 77.675781 108.4375 77.984375 108.625 78.308594 C 109.335938 79.535156 109.710938 80.863281 109.78125 82.1875 C 109.792969 82.347656 109.796875 82.511719 109.796875 82.671875 C 109.796875 82.875 109.789062 83.074219 109.773438 83.273438 Z M 332.210938 241.773438 C 327.484375 238.375 327.367188 231.339844 332.027344 227.773438 C 336.035156 224.738281 341.664062 225.667969 344.480469 229.730469 C 347.222656 233.675781 346.234375 239.089844 342.335938 241.832031 C 339.300781 243.972656 335.226562 243.945312 332.210938 241.773438 Z M 239.355469 144.230469 C 239.355469 144.464844 239.359375 144.695312 239.367188 144.925781 C 239.359375 144.695312 239.355469 144.464844 239.355469 144.230469 Z M 239.367188 144.925781 C 239.371094 145.15625 239.378906 145.382812 239.390625 145.613281 C 239.378906 145.382812 239.371094 145.15625 239.367188 144.925781 Z M 239.390625 145.617188 C 239.402344 145.84375 239.417969 146.070312 239.433594 146.296875 C 239.417969 146.070312 239.402344 145.84375 239.390625 145.617188 Z M 239.390625 145.617188 " clip-rule="evenodd"/></clipPath><linearGradient x1="190.572555" gradientTransform="matrix(0.039156, 0, 0, 0.039156, 9.952697, 37.499999)" y1="-138.885125" x2="6734.98627" gradientUnits="userSpaceOnUse" y2="8848.646003" id="606a2f996e"><stop stop-opacity="1" stop-color="rgb(45.098877%, 45.098877%, 45.098877%)" offset="0"/><stop stop-opacity="1" stop-color="rgb(45.098877%, 45.098877%, 45.098877%)" offset="0.125"/><stop stop-opacity="1" stop-color="rgb(45.098877%, 45.098877%, 45.098877%)" offset="0.1875"/><stop stop-opacity="1" stop-color="rgb(45.098877%, 45.098877%, 45.098877%)" offset="0.21875"/><stop stop-opacity="1" stop-color="rgb(45.004272%, 45.146179%, 44.93866%)" offset="0.226562"/><stop stop-opacity="1" stop-color="rgb(44.779968%, 45.257568%, 44.558716%)" offset="0.230469"/><stop stop-opacity="1" stop-color="rgb(44.650269%, 45.323181%, 44.338989%)" offset="0.234375"/><stop stop-opacity="1" stop-color="rgb(44.520569%, 45.387268%, 44.119263%)" offset="0.238281"/><stop stop-opacity="1" stop-color="rgb(44.390869%, 45.452881%, 43.901062%)" offset="0.242188"/><stop stop-opacity="1" stop-color="rgb(44.261169%, 45.516968%, 43.681335%)" offset="0.246094"/><stop stop-opacity="1" stop-color="rgb(44.13147%, 45.582581%, 43.461609%)" offset="0.25"/><stop stop-opacity="1" stop-color="rgb(44.00177%, 45.646667%, 43.241882%)" offset="0.253906"/><stop stop-opacity="1" stop-color="rgb(43.87207%, 45.71228%, 43.023682%)" offset="0.257812"/><stop stop-opacity="1" stop-color="rgb(43.742371%, 45.776367%, 42.803955%)" offset="0.261719"/><stop stop-opacity="1" stop-color="rgb(43.612671%, 45.84198%, 42.584229%)" offset="0.265625"/><stop stop-opacity="1" stop-color="rgb(43.482971%, 45.906067%, 42.364502%)" offset="0.269531"/><stop stop-opacity="1" stop-color="rgb(43.353271%, 45.97168%, 42.146301%)" offset="0.273438"/><stop stop-opacity="1" stop-color="rgb(43.223572%, 46.035767%, 41.926575%)" offset="0.277344"/><stop stop-opacity="1" stop-color="rgb(43.093872%, 46.101379%, 41.706848%)" offset="0.28125"/><stop stop-opacity="1" stop-color="rgb(42.964172%, 46.165466%, 41.487122%)" offset="0.285156"/><stop stop-opacity="1" stop-color="rgb(42.834473%, 46.231079%, 41.268921%)" offset="0.289062"/><stop stop-opacity="1" stop-color="rgb(42.704773%, 46.295166%, 41.049194%)" offset="0.292969"/><stop stop-opacity="1" stop-color="rgb(42.575073%, 46.360779%, 40.829468%)" offset="0.296875"/><stop stop-opacity="1" stop-color="rgb(42.445374%, 46.424866%, 40.609741%)" offset="0.300781"/><stop stop-opacity="1" stop-color="rgb(42.315674%, 46.490479%, 40.391541%)" offset="0.304688"/><stop stop-opacity="1" stop-color="rgb(42.185974%, 46.554565%, 40.171814%)" offset="0.308594"/><stop stop-opacity="1" stop-color="rgb(42.056274%, 46.620178%, 39.952087%)" offset="0.3125"/><stop stop-opacity="1" stop-color="rgb(41.926575%, 46.684265%, 39.732361%)" offset="0.316406"/><stop stop-opacity="1" stop-color="rgb(41.796875%, 46.749878%, 39.51416%)" offset="0.320313"/><stop stop-opacity="1" stop-color="rgb(41.667175%, 46.813965%, 39.294434%)" offset="0.324219"/><stop stop-opacity="1" stop-color="rgb(41.537476%, 46.879578%, 39.074707%)" offset="0.328125"/><stop stop-opacity="1" stop-color="rgb(41.407776%, 46.943665%, 38.85498%)" offset="0.332031"/><stop stop-opacity="1" stop-color="rgb(41.278076%, 47.009277%, 38.63678%)" offset="0.335938"/><stop stop-opacity="1" stop-color="rgb(41.148376%, 47.073364%, 38.417053%)" offset="0.339844"/><stop stop-opacity="1" stop-color="rgb(41.018677%, 47.138977%, 38.197327%)" offset="0.34375"/><stop stop-opacity="1" stop-color="rgb(40.888977%, 47.203064%, 37.9776%)" offset="0.347656"/><stop stop-opacity="1" stop-color="rgb(40.759277%, 47.268677%, 37.759399%)" offset="0.351563"/><stop stop-opacity="1" stop-color="rgb(40.629578%, 47.332764%, 37.539673%)" offset="0.355469"/><stop stop-opacity="1" stop-color="rgb(40.499878%, 47.398376%, 37.319946%)" offset="0.359375"/><stop stop-opacity="1" stop-color="rgb(40.370178%, 47.462463%, 37.10022%)" offset="0.363281"/><stop stop-opacity="1" stop-color="rgb(40.240479%, 47.528076%, 36.882019%)" offset="0.367188"/><stop stop-opacity="1" stop-color="rgb(40.110779%, 47.592163%, 36.662292%)" offset="0.371094"/><stop stop-opacity="1" stop-color="rgb(39.981079%, 47.657776%, 36.442566%)" offset="0.375"/><stop stop-opacity="1" stop-color="rgb(39.851379%, 47.721863%, 36.222839%)" offset="0.378906"/><stop stop-opacity="1" stop-color="rgb(39.72168%, 47.787476%, 36.004639%)" offset="0.382813"/><stop stop-opacity="1" stop-color="rgb(39.59198%, 47.851562%, 35.784912%)" offset="0.386719"/><stop stop-opacity="1" stop-color="rgb(39.46228%, 47.917175%, 35.565186%)" offset="0.390625"/><stop stop-opacity="1" stop-color="rgb(39.332581%, 47.981262%, 35.345459%)" offset="0.394531"/><stop stop-opacity="1" stop-color="rgb(39.202881%, 48.046875%, 35.127258%)" offset="0.398438"/><stop stop-opacity="1" stop-color="rgb(39.073181%, 48.110962%, 34.907532%)" offset="0.402344"/><stop stop-opacity="1" stop-color="rgb(38.943481%, 48.176575%, 34.687805%)" offset="0.40625"/><stop stop-opacity="1" stop-color="rgb(38.813782%, 48.240662%, 34.468079%)" offset="0.410156"/><stop stop-opacity="1" stop-color="rgb(38.684082%, 48.306274%, 34.249878%)" offset="0.414063"/><stop stop-opacity="1" stop-color="rgb(38.554382%, 48.370361%, 34.030151%)" offset="0.417969"/><stop stop-opacity="1" stop-color="rgb(38.424683%, 48.435974%, 33.810425%)" offset="0.421875"/><stop stop-opacity="1" stop-color="rgb(38.294983%, 48.500061%, 33.590698%)" offset="0.425781"/><stop stop-opacity="1" stop-color="rgb(38.166809%, 48.565674%, 33.372498%)" offset="0.429688"/><stop stop-opacity="1" stop-color="rgb(38.037109%, 48.629761%, 33.152771%)" offset="0.433594"/><stop stop-opacity="1" stop-color="rgb(37.90741%, 48.695374%, 32.933044%)" offset="0.4375"/><stop stop-opacity="1" stop-color="rgb(37.77771%, 48.75946%, 32.713318%)" offset="0.441406"/><stop stop-opacity="1" stop-color="rgb(37.64801%, 48.825073%, 32.495117%)" offset="0.445313"/><stop stop-opacity="1" stop-color="rgb(37.518311%, 48.88916%, 32.275391%)" offset="0.449219"/><stop stop-opacity="1" stop-color="rgb(37.388611%, 48.954773%, 32.055664%)" offset="0.453125"/><stop stop-opacity="1" stop-color="rgb(37.258911%, 49.01886%, 31.835938%)" offset="0.457031"/><stop stop-opacity="1" stop-color="rgb(37.129211%, 49.084473%, 31.617737%)" offset="0.460938"/><stop stop-opacity="1" stop-color="rgb(36.999512%, 49.14856%, 31.39801%)" offset="0.464844"/><stop stop-opacity="1" stop-color="rgb(36.869812%, 49.214172%, 31.178284%)" offset="0.46875"/><stop stop-opacity="1" stop-color="rgb(36.740112%, 49.278259%, 30.958557%)" offset="0.472656"/><stop stop-opacity="1" stop-color="rgb(36.610413%, 49.343872%, 30.740356%)" offset="0.476563"/><stop stop-opacity="1" stop-color="rgb(36.480713%, 49.407959%, 30.52063%)" offset="0.480469"/><stop stop-opacity="1" stop-color="rgb(36.351013%, 49.473572%, 30.300903%)" offset="0.484375"/><stop stop-opacity="1" stop-color="rgb(36.221313%, 49.537659%, 30.081177%)" offset="0.488281"/><stop stop-opacity="1" stop-color="rgb(36.091614%, 49.603271%, 29.862976%)" offset="0.492187"/><stop stop-opacity="1" stop-color="rgb(35.961914%, 49.667358%, 29.64325%)" offset="0.496094"/><stop stop-opacity="1" stop-color="rgb(35.832214%, 49.732971%, 29.423523%)" offset="0.5"/><stop stop-opacity="1" stop-color="rgb(35.702515%, 49.797058%, 29.203796%)" offset="0.503906"/><stop stop-opacity="1" stop-color="rgb(35.572815%, 49.862671%, 28.985596%)" offset="0.507812"/><stop stop-opacity="1" stop-color="rgb(35.443115%, 49.926758%, 28.765869%)" offset="0.511719"/><stop stop-opacity="1" stop-color="rgb(35.313416%, 49.992371%, 28.546143%)" offset="0.515625"/><stop stop-opacity="1" stop-color="rgb(35.183716%, 50.056458%, 28.326416%)" offset="0.519531"/><stop stop-opacity="1" stop-color="rgb(35.054016%, 50.12207%, 28.108215%)" offset="0.523438"/><stop stop-opacity="1" stop-color="rgb(34.924316%, 50.186157%, 27.888489%)" offset="0.527344"/><stop stop-opacity="1" stop-color="rgb(34.794617%, 50.25177%, 27.668762%)" offset="0.53125"/><stop stop-opacity="1" stop-color="rgb(34.664917%, 50.315857%, 27.449036%)" offset="0.535156"/><stop stop-opacity="1" stop-color="rgb(34.535217%, 50.38147%, 27.230835%)" offset="0.539062"/><stop stop-opacity="1" stop-color="rgb(34.405518%, 50.445557%, 27.011108%)" offset="0.542969"/><stop stop-opacity="1" stop-color="rgb(34.275818%, 50.511169%, 26.791382%)" offset="0.546875"/><stop stop-opacity="1" stop-color="rgb(34.146118%, 50.575256%, 26.571655%)" offset="0.550781"/><stop stop-opacity="1" stop-color="rgb(34.016418%, 50.640869%, 26.353455%)" offset="0.554688"/><stop stop-opacity="1" stop-color="rgb(33.886719%, 50.704956%, 26.133728%)" offset="0.558594"/><stop stop-opacity="1" stop-color="rgb(33.757019%, 50.770569%, 25.914001%)" offset="0.5625"/><stop stop-opacity="1" stop-color="rgb(33.627319%, 50.834656%, 25.694275%)" offset="0.566406"/><stop stop-opacity="1" stop-color="rgb(33.49762%, 50.900269%, 25.476074%)" offset="0.570312"/><stop stop-opacity="1" stop-color="rgb(33.36792%, 50.964355%, 25.256348%)" offset="0.574219"/><stop stop-opacity="1" stop-color="rgb(33.23822%, 51.029968%, 25.036621%)" offset="0.578125"/><stop stop-opacity="1" stop-color="rgb(33.108521%, 51.094055%, 24.816895%)" offset="0.582031"/><stop stop-opacity="1" stop-color="rgb(32.978821%, 51.159668%, 24.598694%)" offset="0.585938"/><stop stop-opacity="1" stop-color="rgb(32.849121%, 51.223755%, 24.378967%)" offset="0.589844"/><stop stop-opacity="1" stop-color="rgb(32.719421%, 51.289368%, 24.159241%)" offset="0.59375"/><stop stop-opacity="1" stop-color="rgb(32.589722%, 51.353455%, 23.939514%)" offset="0.597656"/><stop stop-opacity="1" stop-color="rgb(32.460022%, 51.419067%, 23.721313%)" offset="0.601562"/><stop stop-opacity="1" stop-color="rgb(32.330322%, 51.483154%, 23.501587%)" offset="0.605469"/><stop stop-opacity="1" stop-color="rgb(32.200623%, 51.548767%, 23.28186%)" offset="0.609375"/><stop stop-opacity="1" stop-color="rgb(32.070923%, 51.612854%, 23.062134%)" offset="0.613281"/><stop stop-opacity="1" stop-color="rgb(31.941223%, 51.678467%, 22.843933%)" offset="0.617188"/><stop stop-opacity="1" stop-color="rgb(31.811523%, 51.742554%, 22.624207%)" offset="0.621094"/><stop stop-opacity="1" stop-color="rgb(31.681824%, 51.808167%, 22.40448%)" offset="0.625"/><stop stop-opacity="1" stop-color="rgb(31.552124%, 51.872253%, 22.184753%)" offset="0.628906"/><stop stop-opacity="1" stop-color="rgb(31.422424%, 51.937866%, 21.966553%)" offset="0.632812"/><stop stop-opacity="1" stop-color="rgb(31.292725%, 52.001953%, 21.746826%)" offset="0.636719"/><stop stop-opacity="1" stop-color="rgb(31.163025%, 52.067566%, 21.5271%)" offset="0.640625"/><stop stop-opacity="1" stop-color="rgb(31.033325%, 52.131653%, 21.307373%)" offset="0.644531"/><stop stop-opacity="1" stop-color="rgb(30.903625%, 52.197266%, 21.089172%)" offset="0.648438"/><stop stop-opacity="1" stop-color="rgb(30.773926%, 52.261353%, 20.869446%)" offset="0.652344"/><stop stop-opacity="1" stop-color="rgb(30.644226%, 52.326965%, 20.649719%)" offset="0.65625"/><stop stop-opacity="1" stop-color="rgb(30.514526%, 52.391052%, 20.429993%)" offset="0.660156"/><stop stop-opacity="1" stop-color="rgb(30.384827%, 52.456665%, 20.211792%)" offset="0.664062"/><stop stop-opacity="1" stop-color="rgb(30.255127%, 52.520752%, 19.992065%)" offset="0.667969"/><stop stop-opacity="1" stop-color="rgb(30.125427%, 52.586365%, 19.772339%)" offset="0.671875"/><stop stop-opacity="1" stop-color="rgb(29.995728%, 52.650452%, 19.552612%)" offset="0.675781"/><stop stop-opacity="1" stop-color="rgb(29.867554%, 52.716064%, 19.334412%)" offset="0.679688"/><stop stop-opacity="1" stop-color="rgb(29.737854%, 52.780151%, 19.114685%)" offset="0.683594"/><stop stop-opacity="1" stop-color="rgb(29.608154%, 52.845764%, 18.894958%)" offset="0.6875"/><stop stop-opacity="1" stop-color="rgb(29.478455%, 52.909851%, 18.675232%)" offset="0.691406"/><stop stop-opacity="1" stop-color="rgb(29.348755%, 52.975464%, 18.457031%)" offset="0.695312"/><stop stop-opacity="1" stop-color="rgb(29.219055%, 53.039551%, 18.237305%)" offset="0.699219"/><stop stop-opacity="1" stop-color="rgb(29.089355%, 53.105164%, 18.017578%)" offset="0.703125"/><stop stop-opacity="1" stop-color="rgb(28.959656%, 53.16925%, 17.797852%)" offset="0.707031"/><stop stop-opacity="1" stop-color="rgb(28.829956%, 53.234863%, 17.579651%)" offset="0.710938"/><stop stop-opacity="1" stop-color="rgb(28.700256%, 53.29895%, 17.359924%)" offset="0.714844"/><stop stop-opacity="1" stop-color="rgb(28.570557%, 53.364563%, 17.140198%)" offset="0.71875"/><stop stop-opacity="1" stop-color="rgb(28.440857%, 53.42865%, 16.920471%)" offset="0.722656"/><stop stop-opacity="1" stop-color="rgb(28.311157%, 53.494263%, 16.702271%)" offset="0.726562"/><stop stop-opacity="1" stop-color="rgb(28.181458%, 53.55835%, 16.482544%)" offset="0.730469"/><stop stop-opacity="1" stop-color="rgb(28.051758%, 53.622437%, 16.262817%)" offset="0.734375"/><stop stop-opacity="1" stop-color="rgb(27.922058%, 53.686523%, 16.043091%)" offset="0.738281"/><stop stop-opacity="1" stop-color="rgb(27.792358%, 53.752136%, 15.82489%)" offset="0.742188"/><stop stop-opacity="1" stop-color="rgb(27.662659%, 53.816223%, 15.605164%)" offset="0.746094"/><stop stop-opacity="1" stop-color="rgb(27.532959%, 53.881836%, 15.385437%)" offset="0.75"/><stop stop-opacity="1" stop-color="rgb(27.403259%, 53.945923%, 15.16571%)" offset="0.753906"/><stop stop-opacity="1" stop-color="rgb(27.27356%, 54.011536%, 14.94751%)" offset="0.757812"/><stop stop-opacity="1" stop-color="rgb(27.14386%, 54.075623%, 14.727783%)" offset="0.761719"/><stop stop-opacity="1" stop-color="rgb(27.01416%, 54.141235%, 14.508057%)" offset="0.765625"/><stop stop-opacity="1" stop-color="rgb(26.88446%, 54.205322%, 14.28833%)" offset="0.769531"/><stop stop-opacity="1" stop-color="rgb(26.754761%, 54.270935%, 14.070129%)" offset="0.773438"/><stop stop-opacity="1" stop-color="rgb(26.625061%, 54.335022%, 13.850403%)" offset="0.777344"/><stop stop-opacity="1" stop-color="rgb(26.495361%, 54.400635%, 13.630676%)" offset="0.78125"/><stop stop-opacity="1" stop-color="rgb(26.396179%, 54.449463%, 13.464355%)" offset="0.8125"/><stop stop-opacity="1" stop-color="rgb(26.298523%, 54.499817%, 13.299561%)" offset="0.875"/><stop stop-opacity="1" stop-color="rgb(26.298523%, 54.499817%, 13.299561%)" offset="1"/></linearGradient></defs><g clip-path="url(#b84f25668f)"><g clip-path="url(#aecd530d94)"><path fill="url(#606a2f996e)" d="M 9.945312 37.5 L 9.945312 317.695312 L 364.695312 317.695312 L 364.695312 37.5 Z M 9.945312 37.5 " fill-rule="nonzero"/></g></g></svg>